<svg width="100" height="100" viewBox="0 0 100 100" fill="none" xmlns="http://www.w3.org/2000/svg">
<g id="fivicon" filter="url(#filter0_d_82_516)">
<rect width="100" height="100" rx="20" fill="url(#paint0_linear_82_516)"/>
<g id="ToDo" filter="url(#filter1_d_82_516)">
<path d="M23.7717 37.427V62H17.8478V37.427H23.7717ZM31.1638 37.427V42.0007H10.6245V37.427H31.1638ZM29.1554 53.0552V52.7008C29.1554 51.3618 29.3467 50.1298 29.7293 49.0047C30.1118 47.8683 30.6744 46.8838 31.417 46.0512C32.1596 45.2186 33.0765 44.5716 34.1679 44.1103C35.2593 43.6378 36.5195 43.4015 37.9484 43.4015C39.3885 43.4015 40.6543 43.6378 41.7457 44.1103C42.8483 44.5716 43.771 45.2186 44.5135 46.0512C45.2561 46.8838 45.8187 47.8683 46.2012 49.0047C46.5838 50.1298 46.7751 51.3618 46.7751 52.7008V53.0552C46.7751 54.3828 46.5838 55.6149 46.2012 56.7512C45.8187 57.8764 45.2561 58.8609 44.5135 59.7047C43.771 60.5373 42.854 61.1843 41.7626 61.6456C40.6712 62.1069 39.4111 62.3375 37.9821 62.3375C36.5532 62.3375 35.2874 62.1069 34.1848 61.6456C33.0822 61.1843 32.1596 60.5373 31.417 59.7047C30.6744 58.8609 30.1118 57.8764 29.7293 56.7512C29.3467 55.6149 29.1554 54.3828 29.1554 53.0552ZM34.843 52.7008V53.0552C34.843 53.7415 34.8936 54.3828 34.9949 54.9792C35.0962 55.5755 35.2649 56.0987 35.5012 56.5487C35.7375 56.9875 36.0581 57.3307 36.4632 57.5782C36.8682 57.8257 37.3746 57.9495 37.9821 57.9495C38.5785 57.9495 39.0735 57.8257 39.4673 57.5782C39.8724 57.3307 40.193 56.9875 40.4293 56.5487C40.6656 56.0987 40.8343 55.5755 40.9356 54.9792C41.0369 54.3828 41.0875 53.7415 41.0875 53.0552V52.7008C41.0875 52.0369 41.0369 51.4125 40.9356 50.8274C40.8343 50.2311 40.6656 49.7079 40.4293 49.2578C40.193 48.7965 39.8724 48.4365 39.4673 48.1777C39.0623 47.9189 38.5559 47.7895 37.9484 47.7895C37.3521 47.7895 36.8514 47.9189 36.4463 48.1777C36.0525 48.4365 35.7375 48.7965 35.5012 49.2578C35.2649 49.7079 35.0962 50.2311 34.9949 50.8274C34.8936 51.4125 34.843 52.0369 34.843 52.7008ZM57.5595 62H52.1082L52.142 57.4432H57.5595C58.6846 57.4432 59.6354 57.1732 60.4117 56.6331C61.1993 56.093 61.7956 55.2886 62.2007 54.2197C62.617 53.1396 62.8251 51.8119 62.8251 50.2367V49.1735C62.8251 47.9921 62.707 46.9569 62.4707 46.0681C62.2457 45.168 61.9081 44.4198 61.4581 43.8234C61.008 43.2159 60.4455 42.7602 59.7704 42.4564C59.1066 42.1526 58.3415 42.0007 57.4751 42.0007H52.0069V37.427H57.4751C59.1403 37.427 60.6649 37.7139 62.0488 38.2878C63.444 38.8503 64.6479 39.6604 65.6605 40.7181C66.6843 41.7644 67.4719 43.0077 68.0233 44.4479C68.5858 45.8768 68.8671 47.4632 68.8671 49.2072V50.2367C68.8671 51.9694 68.5858 53.5559 68.0233 54.996C67.4719 56.4362 66.69 57.6795 65.6774 58.7259C64.6647 59.7722 63.4665 60.5823 62.0825 61.1561C60.7099 61.7187 59.2022 62 57.5595 62ZM55.5005 37.427V62H49.5767V37.427H55.5005ZM70.9767 53.0552V52.7008C70.9767 51.3618 71.168 50.1298 71.5506 49.0047C71.9331 47.8683 72.4957 46.8838 73.2383 46.0512C73.9809 45.2186 74.8978 44.5716 75.9892 44.1103C77.0806 43.6378 78.3408 43.4015 79.7697 43.4015C81.2099 43.4015 82.4756 43.6378 83.567 44.1103C84.6696 44.5716 85.5923 45.2186 86.3348 46.0512C87.0774 46.8838 87.64 47.8683 88.0225 49.0047C88.4051 50.1298 88.5964 51.3618 88.5964 52.7008V53.0552C88.5964 54.3828 88.4051 55.6149 88.0225 56.7512C87.64 57.8764 87.0774 58.8609 86.3348 59.7047C85.5923 60.5373 84.6753 61.1843 83.5839 61.6456C82.4925 62.1069 81.2324 62.3375 79.8034 62.3375C78.3745 62.3375 77.1087 62.1069 76.0061 61.6456C74.9035 61.1843 73.9809 60.5373 73.2383 59.7047C72.4957 58.8609 71.9331 57.8764 71.5506 56.7512C71.168 55.6149 70.9767 54.3828 70.9767 53.0552ZM76.6643 52.7008V53.0552C76.6643 53.7415 76.7149 54.3828 76.8162 54.9792C76.9175 55.5755 77.0862 56.0987 77.3225 56.5487C77.5588 56.9875 77.8794 57.3307 78.2845 57.5782C78.6895 57.8257 79.1959 57.9495 79.8034 57.9495C80.3998 57.9495 80.8948 57.8257 81.2886 57.5782C81.6937 57.3307 82.0143 56.9875 82.2506 56.5487C82.4869 56.0987 82.6556 55.5755 82.7569 54.9792C82.8582 54.3828 82.9088 53.7415 82.9088 53.0552V52.7008C82.9088 52.0369 82.8582 51.4125 82.7569 50.8274C82.6556 50.2311 82.4869 49.7079 82.2506 49.2578C82.0143 48.7965 81.6937 48.4365 81.2886 48.1777C80.8836 47.9189 80.3772 47.7895 79.7697 47.7895C79.1734 47.7895 78.6727 47.9189 78.2676 48.1777C77.8738 48.4365 77.5588 48.7965 77.3225 49.2578C77.0862 49.7079 76.9175 50.2311 76.8162 50.8274C76.7149 51.4125 76.6643 52.0369 76.6643 52.7008Z" fill="white"/>
</g>
</g>
<defs>
<filter id="filter0_d_82_516" x="-15" y="-15" width="130" height="130" filterUnits="userSpaceOnUse" color-interpolation-filters="sRGB">
<feFlood flood-opacity="0" result="BackgroundImageFix"/>
<feColorMatrix in="SourceAlpha" type="matrix" values="0 0 0 0 0 0 0 0 0 0 0 0 0 0 0 0 0 0 127 0" result="hardAlpha"/>
<feOffset/>
<feGaussianBlur stdDeviation="7.5"/>
<feComposite in2="hardAlpha" operator="out"/>
<feColorMatrix type="matrix" values="0 0 0 0 0 0 0 0 0 0 0 0 0 0 0 0 0 0 0.25 0"/>
<feBlend mode="normal" in2="BackgroundImageFix" result="effect1_dropShadow_82_516"/>
<feBlend mode="normal" in="SourceGraphic" in2="effect1_dropShadow_82_516" result="shape"/>
</filter>
<filter id="filter1_d_82_516" x="6.62451" y="37.4272" width="85.9719" height="32.9102" filterUnits="userSpaceOnUse" color-interpolation-filters="sRGB">
<feFlood flood-opacity="0" result="BackgroundImageFix"/>
<feColorMatrix in="SourceAlpha" type="matrix" values="0 0 0 0 0 0 0 0 0 0 0 0 0 0 0 0 0 0 127 0" result="hardAlpha"/>
<feOffset dy="4"/>
<feGaussianBlur stdDeviation="2"/>
<feComposite in2="hardAlpha" operator="out"/>
<feColorMatrix type="matrix" values="0 0 0 0 0 0 0 0 0 0 0 0 0 0 0 0 0 0 0.25 0"/>
<feBlend mode="normal" in2="BackgroundImageFix" result="effect1_dropShadow_82_516"/>
<feBlend mode="normal" in="SourceGraphic" in2="effect1_dropShadow_82_516" result="shape"/>
</filter>
<linearGradient id="paint0_linear_82_516" x1="86.5" y1="-5.5" x2="13.5" y2="100" gradientUnits="userSpaceOnUse">
<stop stop-color="#2076DA"/>
<stop offset="1" stop-color="#6F5BD4"/>
</linearGradient>
</defs>
</svg>
