<svg width="256" height="247" viewBox="0 0 256 247" fill="none" xmlns="http://www.w3.org/2000/svg">
<g id="Calendar">
<g id="Vector">
<path d="M64.9846 0V78.7693ZM191.015 0V78.7693ZM180.5 108.5L120.123 165.415L89 131.5M33.4769 39.3846H222.523C226.701 39.3846 230.708 41.0444 233.663 43.9988C236.617 46.9532 238.277 50.9603 238.277 55.1385V212.677C238.277 216.855 236.617 220.862 233.663 223.817C230.708 226.771 226.701 228.431 222.523 228.431H33.4769C29.2988 228.431 25.2917 226.771 22.3373 223.817C19.3829 220.862 17.7231 216.855 17.7231 212.677V55.1385C17.7231 50.9603 19.3829 46.9532 22.3373 43.9988C25.2917 41.0444 29.2988 39.3846 33.4769 39.3846Z" fill="#FB18BB" fill-opacity="0.1"/>
<path d="M64.9846 0V78.7693M191.015 0V78.7693M180.5 108.5L120.123 165.415L89 131.5M33.4769 39.3846H222.523C226.701 39.3846 230.708 41.0444 233.663 43.9988C236.617 46.9532 238.277 50.9603 238.277 55.1385V212.677C238.277 216.855 236.617 220.862 233.663 223.817C230.708 226.771 226.701 228.431 222.523 228.431H33.4769C29.2988 228.431 25.2917 226.771 22.3373 223.817C19.3829 220.862 17.7231 216.855 17.7231 212.677V55.1385C17.7231 50.9603 19.3829 46.9532 22.3373 43.9988C25.2917 41.0444 29.2988 39.3846 33.4769 39.3846Z" stroke="url(#paint0_linear_55_151)" stroke-width="22"/>
</g>
</g>
<defs>
<linearGradient id="paint0_linear_55_151" x1="128" y1="0" x2="128" y2="228.431" gradientUnits="userSpaceOnUse">
<stop stop-color="#FB18BB"/>
<stop offset="1" stop-color="#45A7F6"/>
</linearGradient>
</defs>
</svg>
