<svg width="256" height="244" viewBox="0 0 256 244" fill="none" xmlns="http://www.w3.org/2000/svg">
<g id="Edit" clip-path="url(#clip0_55_147)">
<g id="Vector">
<path fill-rule="evenodd" clip-rule="evenodd" d="M109.714 218.209V208.457L117.029 201.143L123.124 195.048H73.1429V170.667H48.7619V73.1428H73.1429V48.7619H170.667V73.1428H195.048V123.124L208.457 109.714L210.895 107.276C213.333 104.838 216.991 102.4 220.648 101.181V73.1428H245.029V0H171.886V24.3809H73.1429V0H0V73.1428H24.381V170.667H0V243.809H73.1429V219.429L109.714 218.209ZM219.429 24.3809H195.048V48.7619H219.429V24.3809ZM48.7619 24.3809H24.381V48.7619H48.7619V24.3809ZM24.381 219.429H48.7619V195.048H24.381V219.429Z" fill="#D9D9D9"/>
<path d="M73.1429 195.048H123.124L195.048 123.124V73.1428H170.667V48.7619H73.1429V73.1428H48.7619V170.667H73.1429V195.048Z" fill="#FB18BB" fill-opacity="0.1"/>
<path d="M134.095 218.209L208.457 143.848L234.057 169.448L159.695 243.809H134.095V218.209Z" fill="#D9D9D9"/>
<path d="M252.343 151.162L240.152 163.352L214.552 137.752L226.743 125.562C229.181 123.124 234.057 123.124 236.495 125.562L252.343 141.409C254.781 143.848 254.781 147.505 252.343 151.162Z" fill="#D9D9D9"/>
<path d="M62.1429 195.048V206.048H73.1429H98.7143V207.57L72.7764 208.435L62.1429 208.789V219.429V232.809H11V181.667H24.381H35.381V170.667V73.1428V62.1428H24.381H11V11H62.1429V24.3809V35.3809H73.1429H171.886H182.886V24.3809V11H234.029V62.1428H220.648H209.648V73.1428V94.3402C208.373 95.1386 207.165 95.9976 206.048 96.8887V73.1428V62.1428H195.048H181.667V48.7619V37.7619H170.667H73.1429H62.1429V48.7619V62.1428H48.7619H37.7619V73.1428V170.667V181.667H48.7619H62.1429V195.048ZM118.567 184.048H84.1429V170.667V159.667H73.1429H59.7619V84.1428H73.1429H84.1429V73.1428V59.7619H159.667V73.1428V84.1428H170.667H184.048V118.567L118.567 184.048ZM208.457 159.404L218.501 169.448L155.139 232.809H145.095V222.766L208.457 159.404ZM195.048 13.3809H184.048V24.3809V48.7619V59.7619H195.048H219.429H230.429V48.7619V24.3809V13.3809H219.429H195.048ZM241.663 146.286L240.152 147.796L230.109 137.752L231.619 136.242L241.663 146.286ZM24.381 13.3809H13.381V24.3809V48.7619V59.7619H24.381H48.7619H59.7619V48.7619V24.3809V13.3809H48.7619H24.381ZM48.7619 230.429H59.7619V219.429V195.048V184.048H48.7619H24.381H13.381V195.048V219.429V230.429H24.381H48.7619Z" stroke="url(#paint0_linear_55_147)" stroke-width="22"/>
</g>
</g>
<defs>
<linearGradient id="paint0_linear_55_147" x1="127.086" y1="0" x2="127.086" y2="243.809" gradientUnits="userSpaceOnUse">
<stop stop-color="#FB18BB"/>
<stop offset="1" stop-color="#45A7F6"/>
</linearGradient>
<clipPath id="clip0_55_147">
<rect width="256" height="243.809" fill="white"/>
</clipPath>
</defs>
</svg>
