<svg width="201" height="83" viewBox="0 0 201 83" fill="none" xmlns="http://www.w3.org/2000/svg">
<g id="logo">
<path id="inkefy" d="M11.2508 60.7441C6.47266 60.7441 4.0836 56.2765 4.0836 47.3414C4.0836 42.4677 4.68086 38.048 5.87539 34.0821C7.73886 27.9661 9.84124 24.9081 12.1825 24.9081C13.5682 24.9081 14.6671 25.8398 15.4794 27.7033C16.1484 29.1368 16.4589 30.5463 16.4112 31.932C16.4112 33.8432 15.8378 37.2118 14.691 42.0377C13.5921 46.2425 13.0426 48.8465 13.0426 49.8499C13.0426 50.8533 13.2815 51.5462 13.7593 51.9284C14.2849 52.3107 14.8822 52.5018 15.5511 52.5018C16.2678 52.5018 17.1518 52.0479 18.203 51.14C19.2542 50.2322 20.3053 49.2527 21.3565 48.2015C22.4077 47.1025 23.3633 46.0991 24.2234 45.1913C25.1312 44.2834 25.7524 43.8295 26.0869 43.8295C26.7558 43.8295 27.0903 44.6418 27.0903 46.2663C27.0903 49.611 25.394 52.884 22.0016 56.0854C18.6569 59.239 15.0733 60.7918 11.2508 60.7441ZM14.1893 19.1027C12.8992 17.1914 12.2542 15.1368 12.2542 12.9389C12.2542 10.741 12.5887 8.92527 13.2576 7.49184C13.9743 6.01062 14.6433 4.93554 15.2644 4.2666C15.8856 3.54988 16.6023 3.19152 17.4146 3.19152C18.7524 3.19152 19.9709 4.19493 21.0698 6.20174C22.1688 8.16077 22.7183 9.80923 22.7183 11.1471C22.7183 13.6317 21.8343 15.5908 20.0664 17.0242C18.3463 18.4099 16.3873 19.1027 14.1893 19.1027ZM33.0402 24.7648C34.7603 24.7648 36.3849 26.4132 37.9139 29.7101C40.1596 27.3688 42.9309 26.1982 46.2278 26.1982C49.5725 26.1982 52.081 26.9388 53.7534 28.42C55.4257 29.8535 56.2619 31.9081 56.2619 34.5838C56.2619 37.2118 55.9035 39.8875 55.1868 42.6111C54.5179 45.3346 54.0162 47.2936 53.6817 48.4882C53.395 49.6349 53.2516 50.5905 53.2516 51.355C53.2516 52.1195 53.5144 52.5018 54.04 52.5018C54.7568 52.5018 55.6407 52.0479 56.6919 51.14C57.7431 50.2322 58.7943 49.2527 59.8455 48.2015C60.8967 47.1025 61.8523 46.0991 62.7123 45.1913C63.6202 44.2834 64.2413 43.8295 64.5758 43.8295C65.2448 43.8295 65.5792 44.6418 65.5792 46.2663C65.5792 49.611 63.9308 52.8363 60.6339 55.9421C55.0912 59.1912 51.5554 60.8157 50.0264 60.8157C49.8831 60.8157 49.7875 60.7918 49.7397 60.7441C45.9172 60.7441 44.006 57.6861 44.006 51.5701C44.006 48.9421 44.2449 46.5291 44.7227 44.3312C45.2483 42.1333 45.6305 40.5326 45.8694 39.5292C46.1083 38.5258 46.2278 37.4985 46.2278 36.4473C46.2278 34.7272 45.2244 33.8671 43.2176 33.8671C41.2585 33.8671 39.3712 35.3483 37.5555 38.3108C35.7876 41.2254 34.5931 44.2595 33.9719 47.4131V47.9148C33.9719 49.5394 34.2108 51.2117 34.6886 52.9318C35.2142 54.652 35.477 55.8465 35.477 56.5154C35.477 58.14 33.4463 59.7407 29.3849 61.3174C28.7637 61.5564 28.2143 61.6758 27.7364 61.6758C26.5419 61.6758 25.7057 61.0546 25.2279 59.8123C24.7979 58.57 24.5829 56.6349 24.5829 54.0069C24.5829 47.222 24.8457 42.3244 25.3713 39.3142C26.088 34.8227 27.7126 30.6419 30.245 26.7716C31.105 25.4337 32.0368 24.7648 33.0402 24.7648ZM82.9317 44.8329C84.2218 49.9455 86.3958 52.5018 89.4538 52.5018C90.935 52.5018 92.2729 52.0479 93.4674 51.14C94.662 50.2322 95.737 49.2527 96.6927 48.2015C97.6483 47.1025 98.4845 46.0991 99.2012 45.1913C99.9179 44.2834 100.587 43.8295 101.208 43.8295C101.829 43.8295 102.14 44.6418 102.14 46.2663C102.14 49.6588 100.563 52.9318 97.4094 56.0854C94.2558 59.239 90.72 60.7918 86.8019 60.7441C82.9317 60.7441 79.4675 57.3277 76.4095 50.495C75.5495 48.5837 74.7372 46.6486 73.9727 44.6896L73.471 54.5086C73.471 55.4165 73.4232 56.3243 73.3276 57.2321C73.2321 58.0922 72.8259 58.8089 72.1092 59.3823C70.2457 60.8635 68.3584 61.6041 66.4471 61.6041C64.2014 61.6041 63.0785 59.2867 63.0785 54.652C63.0785 47.9626 63.8669 40.9626 65.4437 33.6521C67.0205 26.3415 68.5495 20.8467 70.0307 17.1675C71.5597 13.4406 72.7304 10.956 73.5426 9.71366C74.4027 8.47135 75.0716 7.70685 75.5495 7.42016C76.0273 7.13347 76.5529 6.99013 77.1262 6.99013C77.7474 6.99013 78.3924 7.30071 79.0614 7.92187C79.7303 8.49524 80.447 9.40308 81.2115 10.6454C81.976 11.8399 82.3583 13.0345 82.3583 14.229C82.4061 15.3757 82.2149 16.5225 81.7849 17.6692C81.4027 18.7682 80.8771 19.8672 80.2081 20.9662C79.5392 22.0173 78.7986 23.1163 77.9863 24.2631C77.174 25.362 76.3617 26.5566 75.5495 27.8467L74.8327 33.8671C76.5051 30.3791 78.9658 28.0378 82.2149 26.8433C83.3617 26.4132 84.6996 26.1982 86.2286 26.1982C89.2866 26.1982 91.6279 26.9388 93.2524 28.42C94.877 29.8535 95.6893 31.9797 95.6893 34.7988C95.6893 37.6179 94.2797 40.007 91.4606 41.966C88.6415 43.9251 85.7985 44.8807 82.9317 44.8329ZM85.6552 36.4473C85.6552 34.7272 84.6757 33.8671 82.7166 33.8671C80.7576 33.8671 78.6313 35.7545 76.3378 39.5292C75.6689 40.6282 75.0955 41.751 74.6177 42.8978C79.587 42.6111 82.9794 41.2732 84.7951 38.8841C85.3685 38.1196 85.6552 37.3074 85.6552 36.4473ZM115.239 52.7168C118.966 52.7168 122.573 51.2356 126.061 48.2732C127.351 47.1742 128.403 46.1708 129.215 45.2629C130.027 44.3073 130.648 43.8295 131.078 43.8295C131.747 43.8295 132.082 44.4984 132.082 45.8363C132.082 47.1742 131.723 48.6793 131.007 50.3516C130.29 51.9762 129.095 53.5769 127.423 55.1537C123.314 59.0239 117.676 60.9591 110.509 60.9591C104.823 60.9591 100.952 58.9045 98.8977 54.7953C98.181 53.3619 97.8226 51.3073 97.8226 48.6315C97.8226 45.9558 98.3482 43.1844 99.3994 40.3176C100.451 37.4029 101.836 34.8944 103.556 32.792C105.324 30.6896 107.355 29.0651 109.648 27.9183C111.942 26.7238 114.379 26.1265 116.959 26.1265C119.587 26.1265 121.594 26.7716 122.979 28.0617C124.413 29.3518 125.13 31.0241 125.13 33.0787C125.13 35.1333 124.604 36.8295 123.553 38.1674C122.549 39.4575 121.235 40.5565 119.611 41.4643C117.986 42.3244 116.171 43.1128 114.164 43.8295C112.205 44.4984 110.27 45.2629 108.358 46.123V47.9148C108.406 49.6349 109.123 50.8533 110.509 51.5701C111.894 52.2868 113.471 52.669 115.239 52.7168ZM114.02 32.5053C111.536 32.5053 109.816 35.3961 108.86 41.1776C109.863 40.5087 110.795 39.9114 111.655 39.3858C112.563 38.8602 113.352 38.3585 114.02 37.8807C115.454 36.8295 116.195 35.635 116.242 34.2971C116.242 33.1026 115.502 32.5053 114.02 32.5053ZM129.858 24.048C129.858 23.188 130.168 22.758 130.789 22.758C131.745 22.758 132.725 22.973 133.728 23.403C134.731 23.7852 135.806 24.0958 136.953 24.3347C140.776 16.1641 145.172 10.8365 150.141 8.3519C151.861 7.49183 153.581 7.0618 155.301 7.0618C158.503 7.10958 160.653 7.87408 161.752 9.3553C162.898 10.8365 163.472 12.7478 163.472 15.0891C163.424 19.5327 161.513 23.0446 157.738 25.6248C153.963 28.1572 149.352 29.5668 143.905 29.8535C142.52 33.5326 141.445 37.4507 140.68 41.6077C142.544 40.8909 144.933 40.5326 147.847 40.5326C148.23 43.5428 148.899 45.693 149.854 46.9831C150.81 48.2732 151.861 48.9182 153.008 48.9182C154.202 48.9182 155.182 48.6315 155.946 48.0581C156.759 47.4848 157.451 46.8397 158.025 46.123C158.646 45.4063 159.148 44.7612 159.53 44.1879C159.96 43.6145 160.366 43.3278 160.748 43.3278C161.561 43.3278 161.967 44.0445 161.967 45.478C161.967 48.3448 161.25 50.7339 159.817 52.6451C158.383 54.5086 156.185 55.4403 153.223 55.4403C148.588 55.4403 145.291 54.2219 143.332 51.7851C144.383 62.297 144.909 68.5563 144.909 70.5631C144.909 74.1467 143.786 76.703 141.54 78.232C139.677 79.5221 137.288 80.1672 134.373 80.1672C131.506 80.1672 129.499 79.4982 128.353 78.1603C127.254 76.8702 126.704 75.3174 126.704 73.5017C126.704 61.9864 128.353 50.3994 131.65 38.7408C132.701 35.0138 133.895 31.5258 135.233 28.2767C131.65 26.6999 129.858 25.2904 129.858 24.048ZM137.025 74.6484C137.598 74.6484 138.124 74.1945 138.602 73.2867C139.08 72.4266 139.318 71.4949 139.318 70.4914C139.318 67.1945 138.864 62.1297 137.957 55.297C136.762 60.2185 135.95 65.1161 135.52 69.9897C135.424 71.0409 135.376 71.686 135.376 71.9249C135.376 73.7406 135.926 74.6484 137.025 74.6484ZM154.728 14.1573C153.772 14.1573 152.458 15.0652 150.786 16.8809C149.161 18.6965 147.489 21.4679 145.769 25.1948C149.257 23.6658 151.55 22.4952 152.649 21.6829C154.895 20.1061 156.018 18.2187 156.018 16.0208C156.018 14.7785 155.588 14.1573 154.728 14.1573ZM177.662 55.297C175.273 58.5939 172.072 60.2424 168.058 60.2424C164.809 60.2424 162.205 59.5734 160.246 58.2356C158.335 56.8499 157.379 54.6758 157.379 51.7134C157.379 50.4711 157.546 49.3243 157.881 48.2732C158.263 47.222 158.86 45.9319 159.673 44.4029L161.751 27.4166C163.232 26.2699 165.239 25.6965 167.772 25.6965C169.922 25.6965 171.14 27.1299 171.427 29.9968C171.522 30.8569 171.57 31.8842 171.57 33.0787C171.57 34.2255 171.379 35.4439 170.997 36.734C169.086 43.3278 168.154 47.7476 168.202 49.9933C168.202 51.7134 169.205 52.5735 171.212 52.5735C173.219 52.5735 174.7 51.9284 175.656 50.6383C176.611 49.3482 177.423 47.7476 178.092 45.8363C179.335 40.5326 180.481 36.1606 181.533 32.7203C182.632 29.2801 183.324 27.2255 183.611 26.5566C184.089 25.4098 184.997 24.8125 186.335 24.7648C187.673 24.8125 188.939 25.7682 190.133 27.6316C191.328 29.4473 191.925 30.8569 191.925 31.8603C191.829 35.205 189.751 43.6384 185.69 57.1605C188.795 54.7236 191.877 51.7373 194.935 48.2015C195.986 46.9592 196.87 45.9319 197.587 45.1196C198.304 44.2595 198.877 43.8295 199.307 43.8295C199.976 43.8295 200.311 44.594 200.311 46.123C200.311 49.1332 198.614 52.6451 195.222 56.6588C191.877 60.6724 187.768 63.8021 182.894 66.0478C182.321 67.959 181.7 69.7747 181.031 71.4949C180.362 73.215 179.502 74.7201 178.451 76.0102C176.157 78.7815 172.669 80.1672 167.987 80.1672C164.833 80.1672 162.133 79.2593 159.888 77.4436C157.69 75.6279 156.591 73.3583 156.591 70.6348C156.591 69.1058 157.092 67.8874 158.096 66.9795C159.147 66.0717 160.557 65.3072 162.325 64.686C164.14 64.1126 166.243 63.5871 168.632 63.1092C171.021 62.6792 173.577 62.1297 176.301 61.4608C176.969 58.5939 177.423 56.5393 177.662 55.297ZM167.915 74.6484C170.161 74.6484 172.191 72.6894 174.007 68.7713C172.287 69.1058 170.758 69.3447 169.42 69.488C168.082 69.6792 166.935 69.8464 165.98 69.9897C164.069 70.2764 163.137 70.7781 163.185 71.4949C163.185 72.4027 163.71 73.1672 164.761 73.7884C165.86 74.4095 166.912 74.6962 167.915 74.6484Z" fill="white"/>
</g>
</svg>
