<svg width="86" height="28" viewBox="0 0 86 28" fill="none" xmlns="http://www.w3.org/2000/svg">
<g id="logo">
<g id="Task Icon" clip-path="url(#clip0_88_662)">
<path id="Vector" d="M6.13889 16.8889C5.85157 16.8889 5.57602 17.003 5.37286 17.2062C5.16969 17.4094 5.05556 17.6849 5.05556 17.9722C5.05556 18.2595 5.16969 18.5351 5.37286 18.7383C5.57602 18.9414 5.85157 19.0556 6.13889 19.0556H11.1944C11.4818 19.0556 11.7573 18.9414 11.9605 18.7383C12.1636 18.5351 12.2778 18.2595 12.2778 17.9722C12.2778 17.6849 12.1636 17.4094 11.9605 17.2062C11.7573 17.003 11.4818 16.8889 11.1944 16.8889H6.13889ZM5.05556 10.0278C5.05556 9.74046 5.16969 9.46491 5.37286 9.26175C5.57602 9.05858 5.85157 8.94444 6.13889 8.94444H11.1944C11.4818 8.94444 11.7573 9.05858 11.9605 9.26175C12.1636 9.46491 12.2778 9.74046 12.2778 10.0278C12.2778 10.3151 12.1636 10.5906 11.9605 10.7938C11.7573 10.997 11.4818 11.1111 11.1944 11.1111H6.13889C5.85157 11.1111 5.57602 10.997 5.37286 10.7938C5.16969 10.5906 5.05556 10.3151 5.05556 10.0278ZM21.3489 9.34889C21.5402 9.14352 21.6444 8.8719 21.6395 8.59125C21.6345 8.31059 21.5208 8.04281 21.3223 7.84432C21.1239 7.64584 20.8561 7.53214 20.5754 7.52719C20.2948 7.52224 20.0231 7.62642 19.8178 7.81778L17.6944 9.94111L17.0156 9.26222C16.9164 9.15579 16.7968 9.07042 16.6639 9.0112C16.531 8.95199 16.3875 8.92016 16.2421 8.91759C16.0966 8.91502 15.9521 8.94178 15.8172 8.99627C15.6824 9.05075 15.5598 9.13185 15.4569 9.23472C15.3541 9.33759 15.273 9.46013 15.2185 9.59503C15.164 9.72992 15.1372 9.87441 15.1398 10.0199C15.1424 10.1653 15.1742 10.3088 15.2334 10.4417C15.2926 10.5746 15.378 10.6942 15.4844 10.7933L16.9289 12.2378C17.132 12.4407 17.4074 12.5546 17.6944 12.5546C17.9815 12.5546 18.2569 12.4407 18.46 12.2378L21.3489 9.34889ZM21.3489 15.7622C21.5518 15.9653 21.6657 16.2407 21.6657 16.5278C21.6657 16.8149 21.5518 17.0902 21.3489 17.2933L18.46 20.1822C18.2569 20.3851 17.9815 20.499 17.6944 20.499C17.4074 20.499 17.132 20.3851 16.9289 20.1822L15.4844 18.7378C15.378 18.6386 15.2926 18.519 15.2334 18.3861C15.1742 18.2532 15.1424 18.1098 15.1398 17.9643C15.1372 17.8188 15.164 17.6744 15.2185 17.5395C15.273 17.4046 15.3541 17.282 15.4569 17.1792C15.5598 17.0763 15.6824 16.9952 15.8172 16.9407C15.9521 16.8862 16.0966 16.8595 16.2421 16.862C16.3875 16.8646 16.531 16.8964 16.6639 16.9556C16.7968 17.0149 16.9164 17.1002 17.0156 17.2067L17.6944 17.8856L19.8178 15.7622C20.0209 15.5593 20.2962 15.4454 20.5833 15.4454C20.8704 15.4454 21.1458 15.5593 21.3489 15.7622ZM4.69444 1C3.4494 1 2.25535 1.49459 1.37497 2.37497C0.494592 3.25535 0 4.4494 0 5.69444V22.3056C0 23.5506 0.494592 24.7447 1.37497 25.625C2.25535 26.5054 3.4494 27 4.69444 27H21.3056C22.5506 27 23.7447 26.5054 24.625 25.625C25.5054 24.7447 26 23.5506 26 22.3056V5.69444C26 4.4494 25.5054 3.25535 24.625 2.37497C23.7447 1.49459 22.5506 1 21.3056 1H4.69444ZM2.16667 5.69444C2.16667 4.29911 3.29911 3.16667 4.69444 3.16667H21.3056C22.7009 3.16667 23.8333 4.29911 23.8333 5.69444V22.3056C23.8333 22.976 23.567 23.6189 23.093 24.093C22.6189 24.567 21.976 24.8333 21.3056 24.8333H4.69444C4.02404 24.8333 3.38109 24.567 2.90704 24.093C2.43299 23.6189 2.16667 22.976 2.16667 22.3056V5.69444Z" fill="white"/>
</g>
<path id="TODO" d="M44.024 6.106C44.1853 6.29667 44.266 6.49467 44.266 6.7C44.266 6.788 44.2587 6.88333 44.244 6.986C44.244 7.074 44.2367 7.15467 44.222 7.228C44.178 7.38933 44.0827 7.54333 43.936 7.69C43.8187 7.778 43.6573 7.844 43.452 7.888C43.3493 7.91733 43.2467 7.93933 43.144 7.954C43.0413 7.96867 42.9313 7.99067 42.814 8.02C42.7113 8.03467 42.6087 8.042 42.506 8.042C42.4033 8.042 42.2933 8.042 42.176 8.042H41.054C40.79 8.05667 40.526 8.064 40.262 8.064C40.0127 8.064 39.7633 8.064 39.514 8.064C39.5287 8.51867 39.536 9.01 39.536 9.538C39.536 10.0513 39.5287 10.6527 39.514 11.342C39.514 12.0313 39.5067 12.8307 39.492 13.74C39.492 14.6493 39.492 15.7053 39.492 16.908V18.58C39.492 18.7267 39.4993 18.8367 39.514 18.91C39.514 18.9687 39.514 19.0273 39.514 19.086C39.514 19.13 39.5067 19.1887 39.492 19.262C39.4627 19.394 39.4407 19.548 39.426 19.724C39.426 19.7973 39.4187 19.8707 39.404 19.944C39.3893 20.0027 39.3673 20.0687 39.338 20.142C39.2793 20.2007 39.25 20.2447 39.25 20.274L39.184 20.406C39.1107 20.5527 38.9713 20.692 38.766 20.824C38.4433 20.9853 38.084 21.022 37.688 20.934C37.4387 20.9047 37.248 20.8387 37.116 20.736C36.984 20.604 36.8887 20.472 36.83 20.34C36.742 20.1787 36.6907 20.0247 36.676 19.878C36.632 19.746 36.61 19.6067 36.61 19.46V8.152C36.522 8.152 36.3387 8.152 36.06 8.152C35.7813 8.152 35.4807 8.152 35.158 8.152C34.85 8.13733 34.5567 8.12267 34.278 8.108C33.9993 8.09333 33.8087 8.07867 33.706 8.064C33.618 8.04933 33.4787 8.02733 33.288 7.998C33.112 7.96867 32.9653 7.93933 32.848 7.91C32.54 7.822 32.298 7.68267 32.122 7.492C31.9607 7.30133 31.88 7.08867 31.88 6.854C31.88 6.766 31.88 6.678 31.88 6.59C31.88 6.502 31.8947 6.42133 31.924 6.348C31.968 6.172 32.0853 6.02533 32.276 5.908C32.3347 5.864 32.4227 5.81267 32.54 5.754C32.672 5.68067 32.7967 5.62933 32.914 5.6C33.09 5.54133 33.31 5.49733 33.574 5.468C33.6913 5.45333 33.8087 5.446 33.926 5.446C34.0433 5.446 34.168 5.446 34.3 5.446C34.8133 5.446 35.2973 5.446 35.752 5.446C36.2213 5.446 36.7127 5.43867 37.226 5.424C38.0767 5.40933 38.92 5.40933 39.756 5.424C40.6067 5.424 41.45 5.43867 42.286 5.468C42.4767 5.48267 42.66 5.50467 42.836 5.534C43.012 5.56333 43.188 5.61467 43.364 5.688C43.496 5.732 43.6207 5.79067 43.738 5.864C43.8553 5.92267 43.9507 6.00333 44.024 6.106ZM48.6002 5.952C49.5828 5.58533 50.4702 5.424 51.2622 5.468C52.0688 5.512 52.7875 5.71733 53.4182 6.084C54.0488 6.436 54.5842 6.91267 55.0242 7.514C55.4788 8.11533 55.8455 8.79 56.1242 9.538C56.3442 10.0953 56.5128 10.682 56.6302 11.298C56.7475 11.914 56.8135 12.53 56.8282 13.146C56.8575 13.7473 56.8355 14.3413 56.7622 14.928C56.7035 15.5147 56.6008 16.0573 56.4542 16.556C56.3662 16.8933 56.2635 17.2013 56.1462 17.48C56.0288 17.7587 55.8895 18.0373 55.7282 18.316C55.3615 18.9467 54.8848 19.46 54.2982 19.856C53.7262 20.252 53.0955 20.5307 52.4062 20.692C51.9368 20.8093 51.4528 20.868 50.9542 20.868C50.4555 20.8533 49.9642 20.7873 49.4802 20.67C48.9962 20.538 48.5268 20.3547 48.0722 20.12C47.6322 19.8707 47.2288 19.5627 46.8622 19.196C46.4075 18.756 46.0335 18.25 45.7402 17.678C45.4468 17.0913 45.2195 16.4827 45.0582 15.852C44.8968 15.2067 44.7942 14.5613 44.7502 13.916C44.7062 13.2707 44.7062 12.6547 44.7502 12.068C44.7942 11.5253 44.8968 10.946 45.0582 10.33C45.2342 9.714 45.4835 9.12 45.8062 8.548C46.1288 7.976 46.5175 7.46267 46.9722 7.008C47.4415 6.53867 47.9842 6.18667 48.6002 5.952ZM53.7482 15.368C53.9242 14.6787 53.9975 13.9013 53.9682 13.036C53.9388 12.1707 53.7995 11.3567 53.5502 10.594C53.3888 10.1247 53.1835 9.714 52.9342 9.362C52.6995 8.99533 52.4135 8.71667 52.0762 8.526C51.7535 8.33533 51.3722 8.24 50.9322 8.24C50.4922 8.24 50.0008 8.372 49.4582 8.636C49.1355 8.79733 48.8568 9.01733 48.6222 9.296C48.4022 9.57467 48.2188 9.89 48.0722 10.242C47.9402 10.594 47.8302 10.9607 47.7422 11.342C47.6688 11.7233 47.6248 12.09 47.6102 12.442C47.5808 12.8233 47.5735 13.2267 47.5882 13.652C47.6028 14.0627 47.6468 14.4807 47.7202 14.906C47.8082 15.3167 47.9255 15.7127 48.0722 16.094C48.2188 16.4607 48.4168 16.7907 48.6662 17.084C49.0475 17.524 49.4875 17.832 49.9862 18.008C50.4995 18.1693 51.0055 18.1913 51.5042 18.074C52.3108 17.898 52.9268 17.3627 53.3522 16.468C53.5282 16.1453 53.6602 15.7787 53.7482 15.368ZM70.2 12.156C70.2294 12.64 70.222 13.1387 70.178 13.652C70.1487 14.1653 70.0974 14.664 70.024 15.148C69.8774 15.984 69.606 16.798 69.21 17.59C68.814 18.382 68.2347 19.0567 67.472 19.614C66.68 20.2007 65.778 20.604 64.766 20.824C63.754 21.0293 62.7494 21.154 61.752 21.198C61.4147 21.2273 61.07 21.2347 60.718 21.22C60.3807 21.22 60.0507 21.1833 59.728 21.11C59.464 21.066 59.266 20.9853 59.134 20.868C59.0607 20.824 59.002 20.7653 58.958 20.692C58.914 20.6187 58.8774 20.5453 58.848 20.472C58.804 20.3987 58.7674 20.3253 58.738 20.252C58.7234 20.164 58.7014 20.076 58.672 19.988C58.6574 19.9147 58.6427 19.8487 58.628 19.79C58.628 19.7167 58.628 19.6507 58.628 19.592V7.03C58.628 6.92733 58.628 6.832 58.628 6.744C58.628 6.656 58.6427 6.568 58.672 6.48C58.7014 6.27467 58.7454 6.106 58.804 5.974C58.8627 5.798 58.9434 5.67333 59.046 5.6C59.134 5.52667 59.222 5.47533 59.31 5.446C59.398 5.402 59.4787 5.36533 59.552 5.336C59.64 5.30667 59.728 5.30667 59.816 5.336C59.9187 5.35067 60.0287 5.32867 60.146 5.27L63.82 5.358C64.788 5.38733 65.6534 5.61467 66.416 6.04C67.1787 6.45067 67.8314 6.97867 68.374 7.624C68.9167 8.26933 69.342 8.99533 69.65 9.802C69.958 10.594 70.1414 11.3787 70.2 12.156ZM66.108 16.336C66.3867 15.896 66.592 15.39 66.724 14.818C66.856 14.246 66.9147 13.6667 66.9 13.08C66.8854 12.4787 66.8047 11.8993 66.658 11.342C66.5114 10.77 66.306 10.264 66.042 9.824C65.8367 9.50133 65.5727 9.23733 65.25 9.032C64.9274 8.82667 64.568 8.67267 64.172 8.57C63.776 8.45267 63.3507 8.372 62.896 8.328C62.456 8.284 62.0234 8.262 61.598 8.262C61.6127 8.68733 61.62 9.098 61.62 9.494C61.62 9.89 61.62 10.308 61.62 10.748C61.6054 11.276 61.598 11.7893 61.598 12.288C61.598 12.7867 61.598 13.2707 61.598 13.74V18.228C62.0527 18.2133 62.4854 18.1913 62.896 18.162C63.3214 18.118 63.7247 18.03 64.106 17.898C64.502 17.766 64.8614 17.5827 65.184 17.348C65.5214 17.0987 65.8294 16.7613 66.108 16.336ZM75.9068 5.952C76.8895 5.58533 77.7768 5.424 78.5688 5.468C79.3755 5.512 80.0941 5.71733 80.7248 6.084C81.3555 6.436 81.8908 6.91267 82.3308 7.514C82.7855 8.11533 83.1521 8.79 83.4308 9.538C83.6508 10.0953 83.8195 10.682 83.9368 11.298C84.0541 11.914 84.1201 12.53 84.1348 13.146C84.1641 13.7473 84.1421 14.3413 84.0688 14.928C84.0101 15.5147 83.9075 16.0573 83.7608 16.556C83.6728 16.8933 83.5701 17.2013 83.4528 17.48C83.3355 17.7587 83.1961 18.0373 83.0348 18.316C82.6681 18.9467 82.1915 19.46 81.6048 19.856C81.0328 20.252 80.4021 20.5307 79.7128 20.692C79.2435 20.8093 78.7595 20.868 78.2608 20.868C77.7621 20.8533 77.2708 20.7873 76.7868 20.67C76.3028 20.538 75.8335 20.3547 75.3788 20.12C74.9388 19.8707 74.5355 19.5627 74.1688 19.196C73.7141 18.756 73.3401 18.25 73.0468 17.678C72.7535 17.0913 72.5261 16.4827 72.3648 15.852C72.2035 15.2067 72.1008 14.5613 72.0568 13.916C72.0128 13.2707 72.0128 12.6547 72.0568 12.068C72.1008 11.5253 72.2035 10.946 72.3648 10.33C72.5408 9.714 72.7901 9.12 73.1128 8.548C73.4355 7.976 73.8241 7.46267 74.2788 7.008C74.7481 6.53867 75.2908 6.18667 75.9068 5.952ZM81.0548 15.368C81.2308 14.6787 81.3041 13.9013 81.2748 13.036C81.2455 12.1707 81.1061 11.3567 80.8568 10.594C80.6955 10.1247 80.4901 9.714 80.2408 9.362C80.0061 8.99533 79.7201 8.71667 79.3828 8.526C79.0601 8.33533 78.6788 8.24 78.2388 8.24C77.7988 8.24 77.3075 8.372 76.7648 8.636C76.4421 8.79733 76.1635 9.01733 75.9288 9.296C75.7088 9.57467 75.5255 9.89 75.3788 10.242C75.2468 10.594 75.1368 10.9607 75.0488 11.342C74.9755 11.7233 74.9315 12.09 74.9168 12.442C74.8875 12.8233 74.8801 13.2267 74.8948 13.652C74.9095 14.0627 74.9535 14.4807 75.0268 14.906C75.1148 15.3167 75.2321 15.7127 75.3788 16.094C75.5255 16.4607 75.7235 16.7907 75.9728 17.084C76.3541 17.524 76.7941 17.832 77.2928 18.008C77.8061 18.1693 78.3121 18.1913 78.8108 18.074C79.6175 17.898 80.2335 17.3627 80.6588 16.468C80.8348 16.1453 80.9668 15.7787 81.0548 15.368Z" fill="white"/>
</g>
<defs>
<clipPath id="clip0_88_662">
<rect width="26" height="26" fill="white" transform="translate(0 1)"/>
</clipPath>
</defs>
</svg>
