<svg width="256" height="231" viewBox="0 0 256 231" fill="none" xmlns="http://www.w3.org/2000/svg">
<g id="Wallet">
<g id="Vector">
<path d="M38.4 64H192V12.8H38.4C24.32 12.8 12.8 24.32 12.8 38.4C12.8 45.1896 15.4971 51.701 20.2981 56.502C25.099 61.3029 31.6104 64 38.4 64Z" fill="#FB18BB" fill-opacity="0.1"/>
<path d="M217.6 115.2V64H192H38.4C31.6104 64 25.099 61.3029 20.2981 56.502C15.4971 51.701 12.8 45.1896 12.8 38.4L12.8 192C12.8 206.08 24.32 217.6 38.4 217.6H217.6V166.4H192C177.92 166.4 166.4 154.88 166.4 140.8C166.4 134.011 169.097 127.499 173.898 122.698C178.699 117.897 185.21 115.2 192 115.2L217.6 115.2Z" fill="#FB18BB" fill-opacity="0.1"/>
<path d="M217.6 64V115.2L192 115.2M217.6 64H38.4M217.6 64H192M38.4 64C31.6104 64 25.099 61.3029 20.2981 56.502C15.4971 51.701 12.8 45.1896 12.8 38.4M38.4 64H192M12.8 38.4C12.8 24.32 24.32 12.8 38.4 12.8H192V64M12.8 38.4L12.8 192C12.8 206.08 24.32 217.6 38.4 217.6H217.6V166.4H192M192 115.2C185.21 115.2 178.699 117.897 173.898 122.698C169.097 127.499 166.4 134.011 166.4 140.8C166.4 154.88 177.92 166.4 192 166.4M192 115.2H243.2V166.4H192" stroke="url(#paint0_linear_55_140)" stroke-width="22" stroke-linecap="round" stroke-linejoin="round"/>
</g>
</g>
<defs>
<linearGradient id="paint0_linear_55_140" x1="128" y1="12.8" x2="128" y2="217.6" gradientUnits="userSpaceOnUse">
<stop stop-color="#FB18BB"/>
<stop offset="1" stop-color="#45A7F6"/>
</linearGradient>
</defs>
</svg>
